<mxfile host="app.diagrams.net" modified="2025-07-30T20:15:00.000Z" agent="draw.io" etag="k8s-architecture" version="24.7.5" type="device">
  <diagram name="Kubernetes Architecture" id="kubernetes-arch">
    <mxGraphModel dx="1422" dy="794" grid="1" gridSize="10" guides="1" tooltips="1" connect="1" arrows="1" fold="1" page="1" pageScale="1" pageWidth="1400" pageHeight="900" math="0" shadow="0">
      <root>
        <mxCell id="0" />
        <mxCell id="1" parent="0" />
        
        <!-- Title -->
        <mxCell id="title" value="Kubernetes Architecture" style="text;html=1;strokeColor=none;fillColor=none;align=center;verticalAlign=middle;whiteSpace=wrap;rounded=0;fontSize=24;fontStyle=1;" vertex="1" parent="1">
          <mxGeometry x="500" y="20" width="400" height="40" as="geometry" />
        </mxCell>
        
        <mxCell id="subtitle" value="High-level overview of Kubernetes components and their relationships" style="text;html=1;strokeColor=none;fillColor=none;align=center;verticalAlign=middle;whiteSpace=wrap;rounded=0;fontSize=14;" vertex="1" parent="1">
          <mxGeometry x="400" y="60" width="600" height="30" as="geometry" />
        </mxCell>

        <!-- External Components -->
        <mxCell id="kubectl" value="kubectl&#xa;CLI Tool" style="rounded=1;whiteSpace=wrap;html=1;fillColor=#f8f9fa;strokeColor=#6c757d;strokeWidth=2;dashed=1;" vertex="1" parent="1">
          <mxGeometry x="50" y="150" width="100" height="60" as="geometry" />
        </mxCell>
        
        <mxCell id="users" value="Users&#xa;Clients" style="rounded=1;whiteSpace=wrap;html=1;fillColor=#f8f9fa;strokeColor=#6c757d;strokeWidth=2;dashed=1;" vertex="1" parent="1">
          <mxGeometry x="1250" y="150" width="100" height="60" as="geometry" />
        </mxCell>

        <!-- Control Plane Container -->
        <mxCell id="control-plane-container" value="Control Plane (Master Node)" style="rounded=1;whiteSpace=wrap;html=1;fillColor=#e3f2fd;strokeColor=#2196f3;strokeWidth=3;fontSize=16;fontStyle=1;verticalAlign=top;" vertex="1" parent="1">
          <mxGeometry x="200" y="250" width="1000" height="200" as="geometry" />
        </mxCell>

        <!-- Control Plane Components -->
        <mxCell id="api-server" value="API Server&#xa;kube-apiserver" style="rounded=1;whiteSpace=wrap;html=1;fillColor=#e8f6ff;strokeColor=#2196f3;strokeWidth=2;" vertex="1" parent="1">
          <mxGeometry x="650" y="290" width="120" height="60" as="geometry" />
        </mxCell>

        <mxCell id="etcd" value="etcd&#xa;Key-Value Store" style="rounded=1;whiteSpace=wrap;html=1;fillColor=#fff3e0;strokeColor=#ff9800;strokeWidth=2;" vertex="1" parent="1">
          <mxGeometry x="250" y="290" width="120" height="60" as="geometry" />
        </mxCell>

        <mxCell id="scheduler" value="Scheduler&#xa;kube-scheduler" style="rounded=1;whiteSpace=wrap;html=1;fillColor=#f3e5f5;strokeColor=#9c27b0;strokeWidth=2;" vertex="1" parent="1">
          <mxGeometry x="1030" y="290" width="120" height="60" as="geometry" />
        </mxCell>

        <mxCell id="controller-manager" value="Controller Manager&#xa;kube-controller-manager" style="rounded=1;whiteSpace=wrap;html=1;fillColor=#e8f5e8;strokeColor=#4caf50;strokeWidth=2;" vertex="1" parent="1">
          <mxGeometry x="250" y="370" width="150" height="60" as="geometry" />
        </mxCell>

        <mxCell id="cloud-controller" value="Cloud Controller&#xa;cloud-controller-manager" style="rounded=1;whiteSpace=wrap;html=1;fillColor=#fce4ec;strokeColor=#e91e63;strokeWidth=2;" vertex="1" parent="1">
          <mxGeometry x="1000" y="370" width="150" height="60" as="geometry" />
        </mxCell>

        <!-- Data Plane Container -->
        <mxCell id="data-plane-container" value="Data Plane (Worker Nodes)" style="rounded=1;whiteSpace=wrap;html=1;fillColor=#e8f5e8;strokeColor=#27ae60;strokeWidth=3;fontSize=16;fontStyle=1;verticalAlign=top;" vertex="1" parent="1">
          <mxGeometry x="200" y="500" width="1000" height="250" as="geometry" />
        </mxCell>

        <!-- Data Plane Components -->
        <mxCell id="kubelet" value="Kubelet&#xa;Node Agent" style="rounded=1;whiteSpace=wrap;html=1;fillColor=#e3f2fd;strokeColor=#2196f3;strokeWidth=2;" vertex="1" parent="1">
          <mxGeometry x="250" y="540" width="120" height="60" as="geometry" />
        </mxCell>

        <mxCell id="kube-proxy" value="Kube Proxy&#xa;Network Proxy" style="rounded=1;whiteSpace=wrap;html=1;fillColor=#f1f8e9;strokeColor=#8bc34a;strokeWidth=2;" vertex="1" parent="1">
          <mxGeometry x="1030" y="540" width="120" height="60" as="geometry" />
        </mxCell>

        <mxCell id="container-runtime" value="Container Runtime&#xa;Docker/containerd/CRI-O" style="rounded=1;whiteSpace=wrap;html=1;fillColor=#fff8e1;strokeColor=#ffc107;strokeWidth=2;" vertex="1" parent="1">
          <mxGeometry x="620" y="680" width="160" height="60" as="geometry" />
        </mxCell>

        <!-- Pods -->
        <mxCell id="pod1" value="Pod" style="ellipse;whiteSpace=wrap;html=1;fillColor=#e1f5fe;strokeColor=#0277bd;strokeWidth=2;" vertex="1" parent="1">
          <mxGeometry x="580" y="620" width="60" height="40" as="geometry" />
        </mxCell>

        <mxCell id="pod2" value="Pod" style="ellipse;whiteSpace=wrap;html=1;fillColor=#e1f5fe;strokeColor=#0277bd;strokeWidth=2;" vertex="1" parent="1">
          <mxGeometry x="670" y="620" width="60" height="40" as="geometry" />
        </mxCell>

        <mxCell id="pod3" value="Pod" style="ellipse;whiteSpace=wrap;html=1;fillColor=#e1f5fe;strokeColor=#0277bd;strokeWidth=2;" vertex="1" parent="1">
          <mxGeometry x="760" y="620" width="60" height="40" as="geometry" />
        </mxCell>

        <!-- Connections -->
        <!-- kubectl to API Server -->
        <mxCell id="conn1" value="" style="endArrow=classic;html=1;rounded=0;strokeColor=#7f8c8d;strokeWidth=2;dashed=1;" edge="1" parent="1" source="kubectl" target="api-server">
          <mxGeometry width="50" height="50" relative="1" as="geometry">
            <mxPoint x="150" y="180" as="sourcePoint" />
            <mxPoint x="650" y="320" as="targetPoint" />
          </mxGeometry>
        </mxCell>

        <!-- Users to API Server -->
        <mxCell id="conn2" value="" style="endArrow=classic;html=1;rounded=0;strokeColor=#7f8c8d;strokeWidth=2;dashed=1;" edge="1" parent="1" source="users" target="api-server">
          <mxGeometry width="50" height="50" relative="1" as="geometry">
            <mxPoint x="1250" y="180" as="sourcePoint" />
            <mxPoint x="770" y="320" as="targetPoint" />
          </mxGeometry>
        </mxCell>

        <!-- etcd to API Server -->
        <mxCell id="conn3" value="" style="endArrow=classic;html=1;rounded=0;strokeColor=#7f8c8d;strokeWidth=2;dashed=1;" edge="1" parent="1" source="etcd" target="api-server">
          <mxGeometry width="50" height="50" relative="1" as="geometry">
            <mxPoint x="370" y="320" as="sourcePoint" />
            <mxPoint x="650" y="320" as="targetPoint" />
          </mxGeometry>
        </mxCell>

        <!-- API Server to Scheduler -->
        <mxCell id="conn4" value="" style="endArrow=classic;html=1;rounded=0;strokeColor=#7f8c8d;strokeWidth=2;dashed=1;" edge="1" parent="1" source="api-server" target="scheduler">
          <mxGeometry width="50" height="50" relative="1" as="geometry">
            <mxPoint x="770" y="320" as="sourcePoint" />
            <mxPoint x="1030" y="320" as="targetPoint" />
          </mxGeometry>
        </mxCell>

        <!-- API Server to Controller Manager -->
        <mxCell id="conn5" value="" style="endArrow=classic;html=1;rounded=0;strokeColor=#7f8c8d;strokeWidth=2;dashed=1;" edge="1" parent="1" source="api-server" target="controller-manager">
          <mxGeometry width="50" height="50" relative="1" as="geometry">
            <mxPoint x="650" y="350" as="sourcePoint" />
            <mxPoint x="400" y="400" as="targetPoint" />
          </mxGeometry>
        </mxCell>

        <!-- API Server to Kubelet -->
        <mxCell id="conn6" value="" style="endArrow=classic;html=1;rounded=0;strokeColor=#7f8c8d;strokeWidth=2;dashed=1;" edge="1" parent="1" source="api-server" target="kubelet">
          <mxGeometry width="50" height="50" relative="1" as="geometry">
            <mxPoint x="650" y="350" as="sourcePoint" />
            <mxPoint x="310" y="540" as="targetPoint" />
          </mxGeometry>
        </mxCell>

        <!-- Kubelet to Container Runtime -->
        <mxCell id="conn7" value="" style="endArrow=classic;html=1;rounded=0;strokeColor=#7f8c8d;strokeWidth=2;dashed=1;" edge="1" parent="1" source="kubelet" target="container-runtime">
          <mxGeometry width="50" height="50" relative="1" as="geometry">
            <mxPoint x="370" y="600" as="sourcePoint" />
            <mxPoint x="620" y="680" as="targetPoint" />
          </mxGeometry>
        </mxCell>

        <!-- Container Runtime to Pods -->
        <mxCell id="conn8" value="" style="endArrow=classic;html=1;rounded=0;strokeColor=#7f8c8d;strokeWidth=2;dashed=1;" edge="1" parent="1" source="container-runtime" target="pod1">
          <mxGeometry width="50" height="50" relative="1" as="geometry">
            <mxPoint x="670" y="680" as="sourcePoint" />
            <mxPoint x="610" y="660" as="targetPoint" />
          </mxGeometry>
        </mxCell>

        <mxCell id="conn9" value="" style="endArrow=classic;html=1;rounded=0;strokeColor=#7f8c8d;strokeWidth=2;dashed=1;" edge="1" parent="1" source="container-runtime" target="pod2">
          <mxGeometry width="50" height="50" relative="1" as="geometry">
            <mxPoint x="700" y="680" as="sourcePoint" />
            <mxPoint x="700" y="660" as="targetPoint" />
          </mxGeometry>
        </mxCell>

        <mxCell id="conn10" value="" style="endArrow=classic;html=1;rounded=0;strokeColor=#7f8c8d;strokeWidth=2;dashed=1;" edge="1" parent="1" source="container-runtime" target="pod3">
          <mxGeometry width="50" height="50" relative="1" as="geometry">
            <mxPoint x="730" y="680" as="sourcePoint" />
            <mxPoint x="790" y="660" as="targetPoint" />
          </mxGeometry>
        </mxCell>

        <!-- Legend -->
        <mxCell id="legend-container" value="Legend" style="rounded=1;whiteSpace=wrap;html=1;fillColor=#ffffff;strokeColor=#cccccc;strokeWidth=2;fontSize=14;fontStyle=1;verticalAlign=top;" vertex="1" parent="1">
          <mxGeometry x="50" y="780" width="200" height="100" as="geometry" />
        </mxCell>

        <mxCell id="legend1" value="Control Plane" style="rounded=1;whiteSpace=wrap;html=1;fillColor=#e3f2fd;strokeColor=#2196f3;strokeWidth=1;fontSize=10;" vertex="1" parent="1">
          <mxGeometry x="60" y="810" width="80" height="20" as="geometry" />
        </mxCell>

        <mxCell id="legend2" value="Data Plane" style="rounded=1;whiteSpace=wrap;html=1;fillColor=#e8f5e8;strokeColor=#27ae60;strokeWidth=1;fontSize=10;" vertex="1" parent="1">
          <mxGeometry x="60" y="840" width="80" height="20" as="geometry" />
        </mxCell>

        <mxCell id="legend3" value="External" style="rounded=1;whiteSpace=wrap;html=1;fillColor=#f8f9fa;strokeColor=#6c757d;strokeWidth=1;dashed=1;fontSize=10;" vertex="1" parent="1">
          <mxGeometry x="160" y="810" width="60" height="20" as="geometry" />
        </mxCell>

        <mxCell id="legend4" value="Connection" style="text;html=1;strokeColor=#7f8c8d;fillColor=none;align=center;verticalAlign=middle;whiteSpace=wrap;rounded=0;fontSize=10;dashed=1;" vertex="1" parent="1">
          <mxGeometry x="160" y="840" width="60" height="20" as="geometry" />
        </mxCell>

      </root>
    </mxGraphModel>
  </diagram>
</mxfile>